# xmcd
#
# Track frame offsets:
#	150
#	13335
#	37067
#	58435
#	88767
#	103457
#	122565
#	146057
#	164675
#	183387
#	211812
#	231912
#	255512
#	274465
#	286630
#	317607
#
# Disc length: 4521 seconds
#
# Revision: 0
# Processed by: cddbd v1.4PL0 Copyright (c) Steve Scherf et al.
# Submitted via: EasyCDDAExtractor 4.6.9.1
#
DISCID=fa11a710
DTITLE=Raymond Froggatt - Here's to everyone
DYEAR=1992
DGENRE=Country
TTITLE0=All because of you
TTITLE1=Somewhere under the sun
TTITLE2=Fall appart
TTITLE3=Rivers and mountains
TTITLE4=Hurricane
TTITLE5=Sunshine
TTITLE6=Here's to everyone
TTITLE7=Something's going on
TTITLE8=I'll follow you
TTITLE9=Here's two butterflys
TTITLE10=Maybe the angels
TTITLE11=Wings on my heals
TTITLE12=charlie
TTITLE13=Red Balloon
TTITLE14=Spin a thought
TTITLE15=Don't let me cry
EXTD=
EXTT0=
EXTT1=
EXTT2=
EXTT3=
EXTT4=
EXTT5=
EXTT6=
EXTT7=
EXTT8=
EXTT9=
EXTT10=
EXTT11=
EXTT12=
EXTT13=
EXTT14=
EXTT15=
PLAYORDER=
